<mxfile host="app.diagrams.net" modified="2024-02-20T00:51:39.584Z" agent="Mozilla/5.0 (Windows NT 10.0; Win64; x64; rv:122.0) Gecko/20100101 Firefox/122.0" version="23.0.2" etag="Lk3TYzG8qhA7IMbxD4XW" type="github">
  <diagram name="Page-1" id="3CQJeB8ll3eQGCyubroe">
    <mxGraphModel>
      <root>
        <mxCell id="0" />
        <mxCell id="1" parent="0" />
      </root>
    </mxGraphModel>
  </diagram>
</mxfile>
